PathFileType	4	(X/Y/Z)	6_coords_data.trc
DataRate	CameraRate	NumFrames	NumMarkers	Units	OrigDataRate	OrigDataStartFrame	OrigNumFrames
30.0	30.0	4	21	m	30.0	1	71
Frame#	Time	THUMB_TIP	THUMB_IP	THUMB_MCP	THUMB_CMC	INDEX_TIP	INDEX_DIP	INDEX_PIP	INDEX_MCP	MIDDLE_TIP	MIDDLE_DIP	MIDDLE_PIP	MIDDLE_MCP	RING_TIP	RING_DIP	RING_PIP	RING_MCP	PINKY_TIP	PINKY_DIP	PINKY_PIP	PINKY_MCP	WRIST
X1	Y1	Z1	X2	Y2	Z2	X3	Y3	Z3	X4	Y4	Z4	X5	Y5	Z5	X6	Y6	Z6	X7	Y7	Z7	X8	Y8	Z8	X9	Y9	Z9	X10	Y10	Z10	X11	Y11	Z11	X12	Y12	Z12	X13	Y13	Z13	X14	Y14	Z14	X15	Y15	Z15	X16	Y16	Z16	X17	Y17	Z17	X18	Y18	Z18	X19	Y19	Z19	X20	Y20	Z20	X21	Y21	Z21
0	0.0	0.03214820098876953	-0.033508399963378906	1.0204500122070312	0.03401430130004883	-0.05531129837036133	1.0286500244140624	0.012111300468444825	-0.06852760314941406	1.04677001953125	-0.01282450008392334	-0.04732540130615234	1.0556600341796876	0.021896499633789063	-0.0880093002319336	0.923291015625	0.010299400329589843	-0.08444339752197266	0.9439940185546875	-0.00044196701049804604	-0.07835690307617188	0.9645819702148437	-0.021263500213623047	-0.06723539733886719	0.996218994140625	0.01190559959411621	-0.04589849853515625	1.044030029296875	0.019326499938964844	-0.043381000518798826	1.020510009765625	0.018642799377441406	-0.04313729858398437	0.990927001953125	-0.028205499649047852	-0.04369110107421875	0.9863319702148438	0.024573699951171875	-0.033254100799560544	1.0440799560546874	0.02316189956665039	-0.02721030044555664	1.021	0.022611400604248048	-0.022418399810791016	0.9937069702148438	-0.022035499572753907	-0.01930900001525879	0.9914169921875	0.036756401062011716	0.01829210090637207	0.9539719848632813	0.023668399810791017	0.011374400138854981	0.9695399780273437	0.009834790229797363	0.006025179862976075	0.9844400024414063	-0.012212400436401366	-0.0030585498809814447	1.003510009765625	-0.039452098846435545	-0.01963319969177246	1.0685899658203124
1	0.03333333333333333	0.032019298553466795	-0.0333484001159668	1.0200700073242188	0.03356909942626953	-0.056190200805664066	1.028300048828125	0.012361800193786621	-0.06850360107421875	1.047030029296875	-0.010345499992370605	-0.04511899948120117	1.056739990234375	0.021701099395751954	-0.08817710113525391	0.924073974609375	0.010753999710083008	-0.08389890289306641	0.9441489868164062	-0.000591288983821868	-0.078364501953125	0.965968994140625	-0.01983580017089844	-0.06611589813232421	0.999281982421875	0.011477399826049804	-0.045572898864746095	1.0405699462890625	0.01917049980163574	-0.04404520034790039	1.0216099853515626	0.01798419952392578	-0.04348490142822266	0.9918930053710937	-0.026804100036621092	-0.043954200744628906	0.987218017578125	0.018173200607299805	-0.03150130081176758	1.0445699462890625	0.02273419952392578	-0.028383899688720703	1.022469970703125	0.02084900093078613	-0.023067600250244142	0.994676025390625	-0.022354099273681642	-0.019290899276733397	0.9911389770507812	0.036113800048828124	0.018139400482177735	0.955031982421875	0.023673200607299806	0.011696499824523926	0.9703189697265625	0.010440999984741212	0.005902999877929687	0.9840889892578125	-0.011541399955749512	-0.002875880002975464	1.0034299926757813	-0.039238601684570315	-0.02005820083618164	1.07
2	0.06666666666666667	0.03201190185546875	-0.03329230117797852	1.02022998046875	0.03367610168457031	-0.056134700775146484	1.0280999755859375	0.012706000328063965	-0.06843900299072266	1.04677001953125	-0.010163100242614746	-0.04493619918823242	1.0568299560546874	0.021704299926757813	-0.08814440155029298	0.9241400146484375	0.010748499870300294	-0.0838114013671875	0.944218017578125	-0.0005840309858322141	-0.07823049926757812	0.966052001953125	-0.01978700065612793	-0.06594059753417969	0.9992680053710937	0.011664999961853027	-0.04533349990844727	1.04075	0.019375099182128906	-0.04394459915161133	1.0216900024414062	0.018012300491333007	-0.043393600463867185	0.9920640258789063	-0.026810100555419922	-0.043837299346923826	0.9872589721679688	0.018544200897216798	-0.03114979934692383	1.0444100341796876	0.022610399246215822	-0.028153900146484376	1.022530029296875	0.02084429931640625	-0.02298550033569336	0.9947680053710938	-0.022370100021362305	-0.019135000228881836	0.9911619873046875	0.03598080062866211	0.018396900177001952	0.9549539794921875	0.023660200119018555	0.01192300033569336	0.970302978515625	0.010437100410461427	0.006108779907226561	0.9840349731445313	-0.01151490020751953	-0.002730129957199096	1.003469970703125	-0.039118499755859376	-0.019928300857543945	1.0699200439453125
3	0.1	0.03221580123901367	-0.03318470001220703	1.0202000122070312	0.033633998870849606	-0.05594950103759765	1.028219970703125	0.012612199783325196	-0.06831150054931641	1.0468699951171876	-0.010162400245666505	-0.044884601593017576	1.0566800537109375	0.02181170082092285	-0.08812359619140625	0.92414697265625	0.010861599922180176	-0.08371829986572266	0.9442369995117188	-0.0004585750102996821	-0.07809400177001953	0.9660759887695313	-0.019805299758911134	-0.06571820068359376	0.9993280029296875	0.011815699577331543	-0.04520640182495117	1.04075	0.019523099899291994	-0.043792400360107425	1.0217100219726563	0.018031099319458007	-0.043146800994873044	0.9919110107421875	-0.02666819953918457	-0.04362300109863281	0.9871669921875	0.022149599075317383	-0.03190780067443848	1.04302001953125	0.022508399963378906	-0.027981000900268553	1.02277001953125	0.020978500366210937	-0.02277280044555664	0.9948099975585938	-0.02225130081176758	-0.01893510055541992	0.991218994140625	0.03610189819335938	0.018616199493408203	0.9550180053710937	0.023696800231933594	0.012116299629211427	0.970281982421875	0.01050790023803711	0.006292930126190185	0.984094970703125	-0.01134119987487793	-0.002586570024490356	1.0036099853515625	-0.03911529922485352	-0.01971859931945801	1.0701400146484374
